<svg xmlns="http://www.w3.org/2000/svg" width="256" height="256" viewBox="0 0 100 100"><rect width="100" height="100" rx="50" fill="#000000"></rect><path fill="#fff" d="M44.95 78.31L44.95 78.31Q21.86 78.31 21.86 62.32L21.86 62.32Q21.86 60.10 22.31 57.55L22.31 57.55L24.64 43.78Q26.41 33.13 34.35 27.47Q42.29 21.81 54.50 21.70L54.50 21.70Q78.14 21.70 78.14 38.12L78.14 38.12Q78.14 41.68 77.31 44.51Q76.47 47.34 75.59 48.34L75.59 48.34L74.70 49.45L55.83 49.45Q58.60 47.00 58.60 43.67L58.60 43.67Q58.60 37.68 52.61 37.68L52.61 37.68Q49.06 37.68 46.50 39.79Q43.95 41.90 43.17 46.23L43.17 46.23L41.73 54.33Q41.51 55.44 41.51 56.44L41.51 56.44Q41.51 62.32 48.83 62.32L48.83 62.32Q51.28 62.32 53.22 60.77Q55.16 59.21 55.49 57.33L55.49 57.33L73.92 57.55Q70.26 78.31 44.95 78.31Z"></path></svg>