<svg xmlns="http://www.w3.org/2000/svg" width="256" height="256" viewBox="0 0 100 100"><rect width="100" height="100" rx="50" fill="#000000"></rect><path fill="#fff" d="M43.49 85.20L43.49 85.20Q29.91 85.20 24.68 79.31L24.68 79.31Q21.07 75.13 21.07 67.62L21.07 67.62Q21.07 64.39 21.74 60.69L21.74 60.69L25.63 38.84Q29.91 14.80 56.51 14.80L56.51 14.80Q67.53 14.80 73.23 19.50Q78.93 24.21 78.93 32.38L78.93 32.38Q78.93 36.18 77.84 39.93Q76.74 43.68 75.70 45.49L75.70 45.49L74.65 47.39L57.84 47.39Q60.97 43.78 60.97 37.13L60.97 37.13Q60.97 33.61 59.17 31.57Q57.36 29.53 53.85 29.53L53.85 29.53Q44.25 29.53 42.45 40.17L42.45 40.17L39.12 59.36Q38.65 61.83 38.65 64.20L38.65 64.20Q38.65 70.47 46.15 70.47L46.15 70.47Q55.18 70.47 56.98 60.31L56.98 60.31L74.08 60.31L73.61 63.06Q69.81 85.20 43.49 85.20Z"></path></svg>